<?xml version="1.0" standalone="no"?>
<!DOCTYPE svg PUBLIC "-//W3C//DTD SVG 20010904//EN"
 "http://www.w3.org/TR/2001/REC-SVG-20010904/DTD/svg10.dtd">
<svg version="1.0" xmlns="http://www.w3.org/2000/svg"
 width="512.000000pt" height="512.000000pt" viewBox="0 0 512.000000 512.000000"
 preserveAspectRatio="xMidYMid meet">

<g transform="translate(0.000000,512.000000) scale(0.100000,-0.100000)"
fill="#000000" stroke="none">
<path d="M2405 5050 c-1115 -65 -2070 -892 -2290 -1985 -40 -198 -49 -299 -48
-520 1 -224 13 -337 59 -543 144 -649 562 -1227 1138 -1576 527 -320 1144
-433 1749 -321 497 92 947 328 1305 686 514 512 769 1184 730 1922 l-8 152
-453 453 c-451 451 -452 452 -455 417 l-3 -35 -55 0 -54 0 0 65 c0 64 0 65 27
65 26 0 25 2 -27 55 l-55 56 -5 -225 c-5 -243 -7 -248 -60 -261 -18 -4 -34 0
-53 15 l-27 21 0 265 c0 175 4 272 11 286 10 19 -33 65 -477 509 l-487 487
-96 6 c-195 12 -239 13 -366 6z m-928 -902 l23 -21 0 -359 c0 -226 -4 -366
-10 -378 -27 -50 -103 -45 -117 9 -3 14 -7 185 -7 379 l-1 354 24 19 c31 25
59 24 88 -3z m200 0 l23 -21 0 -364 0 -364 -25 -24 c-27 -28 -33 -29 -69 -15
-43 16 -47 55 -44 428 l3 344 24 19 c31 25 59 24 88 -3z m1863 -5 c20 -26 21
-33 18 -391 l-3 -364 -24 -19 c-30 -24 -52 -24 -85 2 l-26 20 0 370 c0 356 1
370 20 389 29 29 74 26 100 -7z m194 11 c9 -8 18 -25 21 -37 3 -12 5 -181 3
-375 l-3 -354 -24 -19 c-30 -24 -52 -24 -85 2 l-26 20 0 370 c0 356 1 370 20
389 24 24 72 26 94 4z m-2457 -106 c23 -21 23 -23 23 -284 0 -238 -2 -264 -18
-284 -22 -27 -65 -29 -92 -5 -19 17 -20 32 -20 291 0 271 0 273 22 288 31 22
58 20 85 -6z m733 -93 c28 -15 57 -52 47 -61 -2 -3 -57 -3 -122 -2 l-117 3 22
28 c13 16 32 33 44 37 34 14 95 11 126 -5z m1259 -22 l36 -38 -119 -3 c-65 -1
-121 0 -124 2 -9 9 28 57 51 66 12 5 44 9 71 9 43 1 52 -3 85 -36z m89 -170
l3 -63 -801 0 -800 0 0 60 0 60 618 3 c339 1 698 2 797 2 l180 0 3 -62z
m-2258 -3 l0 -60 -55 0 -55 0 0 60 0 60 55 0 55 0 0 -60z m980 -300 c5 -160 7
-179 29 -220 32 -60 154 -179 216 -210 47 -23 62 -25 224 -28 l174 -3 62 30
c87 43 187 137 224 213 31 61 31 62 31 230 l0 169 138 -3 137 -3 0 -215 c0
-118 -4 -233 -8 -255 -7 -34 -36 -67 -187 -220 -111 -111 -185 -194 -194 -217
-13 -31 -16 -87 -16 -315 l0 -278 60 -225 60 -225 0 -316 c0 -312 0 -316 -23
-350 -59 -89 -185 -89 -244 0 -23 33 -23 39 -23 321 l0 288 -60 198 c-36 118
-67 204 -77 212 -22 16 -64 16 -86 0 -9 -7 -42 -93 -74 -193 l-57 -180 -5
-312 c-6 -293 -7 -313 -26 -339 -26 -35 -81 -64 -120 -64 -43 0 -96 30 -122
69 -23 34 -23 38 -23 350 l0 315 60 223 60 222 0 283 c0 255 -2 287 -19 323
-11 24 -83 104 -181 200 -89 88 -170 177 -181 197 -17 34 -19 59 -19 267 l0
230 103 4 c56 2 116 3 132 3 l30 -1 5 -175z m551 89 c160 -48 206 -263 82
-381 -39 -37 -93 -58 -153 -58 -129 0 -223 95 -224 226 0 153 144 258 295 213z"/>
</g>
</svg>
